<mxfile host="app.diagrams.net" modified="2024-06-28T12:31:36.347Z" agent="Mozilla/5.0 (Windows NT 10.0; Win64; x64) AppleWebKit/537.36 (KHTML, like Gecko) Chrome/126.0.0.0 Safari/537.36" version="24.6.4" etag="tQzJI6iD-i8VsmchicaW" type="github">
  <diagram name="‫עמוד-1‬" id="REocH9psgUntPmof3Cce">
    <mxGraphModel>
      <root>
        <mxCell id="0" />
        <mxCell id="1" parent="0" />
      </root>
    </mxGraphModel>
  </diagram>
</mxfile>
